<svg width="25" height="25" viewBox="0 0 25 25" fill="none" xmlns="http://www.w3.org/2000/svg">
<path d="M0.902159 1.8728C1.18127 0.845997 2.15194 0.22546 3.17238 0.22546C3.80171 0.22546 4.37416 0.453447 4.80971 0.825427C5.28993 0.437014 5.8967 0.224121 6.52349 0.224121C7.15029 0.224121 7.75705 0.437014 8.23727 0.825427C8.68789 0.437988 9.27086 0.224374 9.8746 0.22546C10.895 0.22546 11.8657 0.845997 12.1448 1.8728C12.4115 2.85331 12.7457 4.4338 12.7457 6.22513C12.7457 7.22545 12.4862 8.20989 11.991 9.08889C11.4958 9.96788 10.7805 10.7135 9.91016 11.258C9.42838 11.5614 9.19016 11.9522 9.19016 12.2865V12.9653C9.19016 13.0042 9.19253 13.0419 9.19727 13.0785C9.25771 13.5036 9.47638 15.0823 9.68083 16.7194C9.88171 18.3256 10.079 20.0775 10.079 20.7957C10.079 21.705 9.70445 22.577 9.03765 23.22C8.37085 23.8629 7.46648 24.2241 6.52349 24.2241C5.5805 24.2241 4.67613 23.8629 4.00933 23.22C3.34254 22.577 2.96794 21.705 2.96794 20.7957C2.96794 20.0758 3.16527 18.3273 3.36616 16.7194C3.5706 15.0823 3.78927 13.5036 3.84971 13.0785L3.85683 12.9653V12.2865C3.85683 11.9522 3.6186 11.5614 3.13683 11.258C2.26652 10.7135 1.55122 9.96788 1.05599 9.08889C0.560753 8.20989 0.301314 7.22545 0.30127 6.22513C0.30127 4.4338 0.635492 2.85331 0.902159 1.8728ZM9.19016 7.08222C9.19016 7.30954 9.09651 7.52754 8.92981 7.68828C8.76311 7.84901 8.53702 7.93932 8.30127 7.93932C8.06552 7.93932 7.83943 7.84901 7.67273 7.68828C7.50603 7.52754 7.41238 7.30954 7.41238 7.08222V2.79675C7.41238 2.56943 7.31873 2.35142 7.15203 2.19069C6.98533 2.02995 6.75924 1.93965 6.52349 1.93965C6.28774 1.93965 6.06165 2.02995 5.89495 2.19069C5.72825 2.35142 5.6346 2.56943 5.6346 2.79675V7.08222C5.6346 7.30954 5.54095 7.52754 5.37425 7.68828C5.20755 7.84901 4.98146 7.93932 4.74571 7.93932C4.50997 7.93932 4.28387 7.84901 4.11717 7.68828C3.95048 7.52754 3.85683 7.30954 3.85683 7.08222V2.59961C3.85683 2.42458 3.78471 2.25672 3.65636 2.13295C3.528 2.00918 3.35391 1.93965 3.17238 1.93965C2.87727 1.93965 2.6746 2.10935 2.62127 2.3082C2.27093 3.58676 2.08876 4.90273 2.07905 6.22513C2.07896 6.94001 2.26435 7.64355 2.61832 8.27169C2.9723 8.89983 3.48362 9.4326 4.10571 9.8215C4.88616 10.31 5.6346 11.1688 5.6346 12.2865V12.9653C5.6346 13.0796 5.6269 13.1939 5.61149 13.3082C5.55105 13.7298 5.33416 15.2983 5.13149 16.9251C4.92527 18.5793 4.74571 20.2061 4.74571 20.7957C4.74571 21.2504 4.93301 21.6864 5.26641 22.0079C5.59981 22.3293 6.052 22.5099 6.52349 22.5099C6.99499 22.5099 7.44717 22.3293 7.78057 22.0079C8.11397 21.6864 8.30127 21.2504 8.30127 20.7957C8.30127 20.2061 8.12349 18.5793 7.91549 16.9234C7.71283 15.2983 7.49594 13.7298 7.43549 13.3064C7.42197 13.1937 7.41426 13.0805 7.41238 12.967V12.2882C7.41238 11.1706 8.16083 10.3118 8.94127 9.82321C9.56362 9.43416 10.0751 8.90111 10.4291 8.27265C10.7831 7.64419 10.9683 6.9403 10.9679 6.22513C10.9679 4.6275 10.6693 3.20129 10.4257 2.3082C10.3724 2.11107 10.1679 1.93965 9.8746 1.93965C9.69308 1.93965 9.51899 2.00918 9.39063 2.13295C9.26227 2.25672 9.19016 2.42458 9.19016 2.59961V7.08222ZM14.5235 7.93932C14.5235 5.89347 15.3663 3.93142 16.8666 2.4848C18.3669 1.03817 20.4018 0.22546 22.5235 0.22546C22.7592 0.22546 22.9853 0.315761 23.152 0.476497C23.3187 0.637234 23.4124 0.855239 23.4124 1.08256V11.3214L23.4462 11.6248C23.5876 12.9042 23.7233 14.1841 23.8533 15.4646C24.0719 17.6176 24.3013 20.0312 24.3013 20.7957C24.3013 21.705 23.9267 22.577 23.2599 23.22C22.5931 23.8629 21.6887 24.2241 20.7457 24.2241C19.8027 24.2241 18.8984 23.8629 18.2316 23.22C17.5648 22.577 17.1902 21.705 17.1902 20.7957C17.1902 20.0312 17.4195 17.6176 17.6382 15.4646C17.7502 14.3727 17.8622 13.327 17.9457 12.5522L17.9813 12.2248H16.3013C15.8298 12.2248 15.3776 12.0442 15.0442 11.7227C14.7108 11.4012 14.5235 10.9652 14.5235 10.5106V7.93932ZM19.8515 11.4585L19.8142 11.8048C19.6752 13.0804 19.5401 14.3563 19.4088 15.6326C19.183 17.8388 18.9679 20.1409 18.9679 20.7957C18.9679 21.2504 19.1552 21.6864 19.4886 22.0079C19.822 22.3293 20.2742 22.5099 20.7457 22.5099C21.2172 22.5099 21.6694 22.3293 22.0028 22.0079C22.3362 21.6864 22.5235 21.2504 22.5235 20.7957C22.5235 20.1392 22.3084 17.8388 22.0826 15.6326C21.9522 14.3562 21.8171 13.0803 21.6773 11.8048L21.6399 11.4603L21.6346 11.3677V1.99965C20.1534 2.20579 18.799 2.91974 17.8194 4.01065C16.8399 5.10156 16.3009 6.49634 16.3013 7.93932V10.5106H18.9679C19.0926 10.5106 19.2158 10.536 19.3297 10.5849C19.4435 10.6339 19.5454 10.7054 19.6287 10.7948C19.7121 10.8842 19.7749 10.9895 19.8133 11.1038C19.8517 11.2182 19.8647 11.339 19.8515 11.4585Z" fill="#585959"/>
</svg>
