<svg width="25" height="25" viewBox="0 0 25 25" fill="none" xmlns="http://www.w3.org/2000/svg">
<g clip-path="url(#clip0_1803_1265)">
<path d="M4.66895 18.0574C4.66895 17.7922 4.7743 17.5378 4.96184 17.3503C5.14937 17.1627 5.40373 17.0574 5.66895 17.0574H8.33561C8.60083 17.0574 8.85518 17.1627 9.04272 17.3503C9.23025 17.5378 9.33561 17.7922 9.33561 18.0574C9.33561 18.3226 9.23025 18.5769 9.04272 18.7645C8.85518 18.952 8.60083 19.0574 8.33561 19.0574H5.66895C5.40373 19.0574 5.14937 18.952 4.96184 18.7645C4.7743 18.5769 4.66895 18.3226 4.66895 18.0574Z" fill="#585959"/>
<path d="M0.668945 12.3441V11.1121C0.668945 10.2348 0.668945 9.52142 0.711612 8.93609C0.755612 8.33076 0.848945 7.79476 1.07028 7.27742C1.42391 6.44815 1.99518 5.72992 2.72361 5.19876C3.17695 4.86809 3.67828 4.65609 4.25961 4.47742C4.81961 4.30409 5.51295 4.14409 6.36895 3.94676L10.9849 2.88009C12.2836 2.58142 13.3236 2.34142 14.1689 2.22276C15.0316 2.10276 15.8036 2.08942 16.5396 2.32809C17.6923 2.70028 18.6707 3.47824 19.2929 4.51742C19.4756 4.82409 19.6076 5.14676 19.7049 5.49076C20.8742 6.01182 21.799 6.96148 22.2889 8.14409C22.4996 8.65342 22.5876 9.19209 22.6289 9.80009C22.6689 10.3761 22.6689 11.0801 22.6689 11.9481C23.0685 12.1371 23.4062 12.4356 23.6427 12.8091C23.8792 13.1825 24.0047 13.6154 24.0047 14.0574C24.0047 14.4994 23.8792 14.9323 23.6427 15.3058C23.4062 15.6792 23.0685 15.9778 22.6689 16.1668C22.6689 17.0334 22.6689 17.7388 22.6289 18.3134C22.5876 18.9228 22.4996 19.4601 22.2889 19.9708C22.0377 20.5776 21.6693 21.1289 21.2049 21.5934C20.7405 22.0578 20.1891 22.4261 19.5823 22.6774C19.0729 22.8881 18.5343 22.9761 17.9263 23.0174C17.3329 23.0574 16.6063 23.0574 15.7049 23.0574H8.02495C6.94228 23.0574 6.06761 23.0574 5.36095 23.0001C4.63161 22.9401 3.99161 22.8134 3.39961 22.5121C2.45817 22.0329 1.69268 21.2679 1.21295 20.3268C0.911612 19.7348 0.786279 19.0948 0.726279 18.3668C0.668945 17.6588 0.668945 16.7841 0.668945 15.7001V12.3441ZM11.3889 4.84142L10.4489 5.05742H15.7209C16.2876 5.05742 16.7836 5.05742 17.2223 5.06809C16.8703 4.68057 16.423 4.39189 15.9249 4.23076C15.6076 4.12809 15.1849 4.10009 14.4449 4.20409C13.6983 4.30809 12.7449 4.52809 11.3876 4.84142M15.3103 7.05742H8.06895C6.93295 7.05742 6.13961 7.05742 5.52228 7.10809C4.91828 7.15742 4.57028 7.25076 4.30761 7.38409C3.7081 7.68867 3.22891 8.18665 2.94761 8.79742C2.83961 9.05076 2.76361 9.38276 2.72095 9.91209L2.70361 10.1521C2.66895 10.7321 2.66895 11.4628 2.66895 12.4574V15.6574C2.66895 16.7948 2.66895 17.5868 2.71961 18.2041C2.76895 18.8081 2.86228 19.1561 2.99561 19.4201C3.28361 19.9841 3.74228 20.4428 4.30761 20.7308C4.57028 20.8641 4.91828 20.9574 5.52361 21.0068C6.13961 21.0561 6.93295 21.0574 8.06895 21.0574H15.6689C16.6156 21.0574 17.2743 21.0574 17.7889 21.0214C18.2956 20.9868 18.5916 20.9228 18.8169 20.8294C19.181 20.6787 19.5119 20.4576 19.7905 20.179C20.0692 19.9003 20.2902 19.5695 20.4409 19.2054C20.5343 18.9801 20.5983 18.6854 20.6329 18.1788C20.6636 17.7254 20.6689 17.1614 20.6689 16.3908H19.0023C18.3834 16.3908 17.7899 16.1449 17.3524 15.7073C16.9148 15.2698 16.6689 14.6763 16.6689 14.0574C16.6689 13.4386 16.9148 12.8451 17.3524 12.4075C17.7899 11.9699 18.3834 11.7241 19.0023 11.7241H20.6689C20.6689 10.9534 20.6636 10.3908 20.6329 9.93742C20.5983 9.43076 20.5343 9.13476 20.4409 8.90942C20.2885 8.54139 20.0642 8.20741 19.7812 7.92698C19.4983 7.64655 19.1623 7.42528 18.7929 7.27609L18.6049 7.22809C17.9743 7.06676 17.0783 7.05742 15.3116 7.05742M18.6689 14.0574C18.6689 14.2414 18.8183 14.3908 19.0023 14.3908H21.6689C21.7574 14.3908 21.8421 14.3556 21.9046 14.2931C21.9672 14.2306 22.0023 14.1458 22.0023 14.0574C22.0023 13.969 21.9672 13.8842 21.9046 13.8217C21.8421 13.7592 21.7574 13.7241 21.6689 13.7241H19.0023C18.9139 13.7241 18.8291 13.7592 18.7666 13.8217C18.7041 13.8842 18.6689 13.969 18.6689 14.0574Z" fill="#585959"/>
</g>
<defs>
<clipPath id="clip0_1803_1265">
<rect width="24" height="24" fill="white" transform="translate(0.835693 0.224121)"/>
</clipPath>
</defs>
</svg>
