<svg width="32" height="32" viewBox="0 0 32 32" fill="none" xmlns="http://www.w3.org/2000/svg">
<rect x="0.5" y="0.5" width="31" height="31" rx="4.5" stroke="#575050"/>
<path fill-rule="evenodd" clip-rule="evenodd" d="M16 6C14.8482 6 13.7436 6.44225 12.9292 7.22947C12.1147 8.01669 11.6572 9.08438 11.6572 10.1977C11.6572 11.311 12.1147 12.3787 12.9292 13.1659C13.7436 13.9531 14.8482 14.3953 16 14.3953C17.1518 14.3953 18.2564 13.9531 19.0708 13.1659C19.8853 12.3787 20.3428 11.311 20.3428 10.1977C20.3428 9.08438 19.8853 8.01669 19.0708 7.22947C18.2564 6.44225 17.1518 6 16 6ZM13.0286 10.1977C13.0286 9.43595 13.3416 8.70542 13.8989 8.1668C14.4561 7.62818 15.2119 7.32558 16 7.32558C16.7881 7.32558 17.5439 7.62818 18.1011 8.1668C18.6583 8.70542 18.9714 9.43595 18.9714 10.1977C18.9714 10.9594 18.6583 11.6899 18.1011 12.2286C17.5439 12.7672 16.7881 13.0698 16 13.0698C15.2119 13.0698 14.4561 12.7672 13.8989 12.2286C13.3416 11.6899 13.0286 10.9594 13.0286 10.1977ZM16 15.7209C13.8853 15.7209 11.936 16.1858 10.4924 16.9705C9.06976 17.7447 8.00005 18.9165 8.00005 20.3605V20.4506C7.99914 21.4775 7.99822 22.766 9.16759 23.6868C9.74267 24.1393 10.5481 24.4618 11.6361 24.6739C12.726 24.8878 14.1477 25 16 25C17.8523 25 19.2731 24.8878 20.3648 24.6739C21.4528 24.4618 22.2573 24.1393 22.8333 23.6868C24.0027 22.766 24.0009 21.4775 23.9999 20.4506V20.3605C23.9999 18.9165 22.9302 17.7447 21.5085 16.9705C20.064 16.1858 18.1156 15.7209 16 15.7209ZM9.37147 20.3605C9.37147 19.6084 9.94015 18.7919 11.1644 18.1264C12.3676 17.4725 14.0754 17.0465 16.0009 17.0465C17.9246 17.0465 19.6324 17.4725 20.8356 18.1264C22.0608 18.7919 22.6285 19.6084 22.6285 20.3605C22.6285 21.5164 22.592 22.1668 21.9666 22.6581C21.6283 22.925 21.0615 23.1857 20.0923 23.3748C19.1259 23.564 17.8048 23.6744 16 23.6744C14.1952 23.6744 12.8732 23.564 11.9077 23.3748C10.9385 23.1857 10.3717 22.925 10.0334 22.659C9.40804 22.1668 9.37147 21.5164 9.37147 20.3605Z" fill="#B2ADAD"/>
</svg>
