<svg width="29" height="25" viewBox="0 0 29 25" fill="none" xmlns="http://www.w3.org/2000/svg">
<g clip-path="url(#clip0_451_858)">
<path d="M10.4731 20.9689C10.9834 21.5344 11.6336 21.9909 12.3746 22.3039C13.1157 22.6169 13.9282 22.7782 14.7508 22.7756C15.5734 22.7782 16.3859 22.6169 17.1269 22.3039C17.868 21.9909 18.5182 21.5344 19.0284 20.9689C16.1896 21.3056 13.3119 21.3056 10.4731 20.9689ZM22.6658 9.41493V10.1385C22.6658 11.0069 22.9473 11.8558 23.4773 12.5783L24.7765 14.3491C25.962 15.9668 25.0568 18.1652 22.9942 18.676C17.6045 20.0137 11.897 20.0137 6.50737 18.676C4.44476 18.1652 3.53951 15.9668 4.72501 14.3491L6.02425 12.5783C6.55569 11.8499 6.8377 11.0031 6.83687 10.1385V9.41493C6.83687 5.44166 10.3805 2.2207 14.7508 2.2207C19.1211 2.2207 22.6658 5.44166 22.6658 9.41493Z" fill="#0F0E0D"/>
<path d="M22.959 8.3596C25.3261 8.3596 27.4768 6.65126 27.4768 4.27636C27.4768 1.90145 25.3261 0.193115 22.959 0.193115C20.5918 0.193115 18.4412 1.90145 18.4412 4.27636C18.4412 6.65126 20.5918 8.3596 22.959 8.3596Z" fill="#FB3E49" stroke="#F8F8F8" stroke-width="2"/>
</g>
<defs>
<clipPath id="clip0_451_858">
<rect width="28.1425" height="24.6659" fill="white" transform="translate(0.679443 0.165283)"/>
</clipPath>
</defs>
</svg>
